<svg xmlns="http://www.w3.org/2000/svg" viewBox="0 0 45 45">
  <g style="fill:#404040">
    <path d="M 22,10 C 32.5,11 38.5,18 38,39 L 15,39 C 15,30 25,32.5 23,18"/>
    <path d="M 24,18 C 24.384,20.591 18.045,21.193 18,26 C 17.955,30.807 19.5,34.5 19.5,34.5 L 15,34.5 C 15,34.5 13,26.5 19,22 C 19,22 16,21 16,18 C 16,14 20,10 22,10 Z"/>
    <path d="M 9.5,25.5 A 0.5,0.5 0 1 1 8.5,25.5 A 0.5,0.5 0 1 1 9.5,25.5 Z"/>
    <path d="M 15,15.5 A 0.5,1.5 0 1 1 14,15.5 A 0.5,1.5 0 1 1 15,15.5 Z" transform="matrix(0.866,0.5,-0.5,0.866,9.693,-5.173)"/>
    <path d="M 10,39.5 L 35,39.5 L 35,40.5 L 10,40.5 Z"/>
  </g>
</svg>
